<svg width="123" height="47" viewBox="0 0 123 47" fill="none" xmlns="http://www.w3.org/2000/svg">
<path d="M15.7538 16.0957H4.91607V26.766H0V1.51915H4.91607V11.8638H15.7538V1.51915H20.6698V26.766H15.7538V16.0957Z" fill="#414555"/>
<path d="M33.1228 27.2C31.6828 27.2 30.3917 26.9709 29.2496 26.5128C28.1323 26.0305 27.1764 25.3674 26.3819 24.5234C25.6122 23.6553 25.0163 22.6184 24.5942 21.4128C24.1721 20.183 23.9611 18.8085 23.9611 17.2894C23.9611 15.7943 24.1597 14.444 24.557 13.2383C24.979 12.0326 25.5749 11.0078 26.3446 10.1638C27.1143 9.29574 28.0578 8.63262 29.1751 8.17447C30.2924 7.6922 31.5586 7.45106 32.9739 7.45106C34.4884 7.45106 35.8043 7.70425 36.9216 8.21064C38.0389 8.71702 38.9576 9.40425 39.6776 10.2723C40.3976 11.1404 40.9314 12.1532 41.279 13.3106C41.6515 14.444 41.8377 15.6617 41.8377 16.9638V18.483H28.9144V18.9532C28.9144 20.3277 29.3116 21.4369 30.1062 22.2809C30.9007 23.1007 32.08 23.5106 33.6442 23.5106C34.836 23.5106 35.8043 23.2695 36.5492 22.7872C37.3189 22.305 38.0017 21.6901 38.5975 20.9426L41.1673 23.7277C40.3728 24.8128 39.2803 25.6688 37.8899 26.2957C36.5244 26.8986 34.9353 27.2 33.1228 27.2ZM33.0483 10.9234C31.7821 10.9234 30.7765 11.3333 30.0317 12.1532C29.2868 12.973 28.9144 14.034 28.9144 15.3362V15.6255H36.8844V15.3C36.8844 13.9979 36.5492 12.9489 35.8788 12.1532C35.2333 11.3333 34.2898 10.9234 33.0483 10.9234Z" fill="#414555"/>
<path d="M49.5931 26.766C47.9544 26.766 46.7502 26.3681 45.9806 25.5723C45.2109 24.7766 44.826 23.6553 44.826 22.2085V0H49.5931V23.0766H52.1629V26.766H49.5931Z" fill="#414555"/>
<path d="M54.5409 26.766V23.0766L64.6337 11.5383H54.8761V7.88511H70.2202V11.466L60.0529 23.0766H70.4809V26.766H54.5409Z" fill="#414555"/>
<path d="M86.5308 7.88511H91L83.179 30.1298C82.9307 30.805 82.6452 31.3837 82.3224 31.866C82.0245 32.3723 81.6644 32.7823 81.2423 33.0957C80.8203 33.4092 80.3113 33.6383 79.7154 33.783C79.1195 33.9277 78.4243 34 77.6298 34H74.7621V30.3106H78.2629L79.1567 27.6702L72.1923 7.88511H76.9222L80.3113 17.8681L81.5775 22.6426H81.801L83.1417 17.8681L86.5308 7.88511Z" fill="#414555"/>
<path d="M11.6017 40.767C11.2474 41.3849 10.9938 41.8193 10.9938 41.8193L12.1308 42.5962C17.2413 33.8325 26.3946 19.8771 26.3946 19.8771C26.3946 19.8771 27.4687 18.3951 28.2187 18.2577C27.3695 19.7323 25.8659 22.2063 24.0644 25.1707C21.6647 29.1195 18.7362 33.9383 16.1214 38.4236C16.6452 38.7291 17.3572 39.129 17.9154 39.3852C23.5543 41.5797 27.2912 36.8123 30.0412 33.1986C32.7912 29.5849 36.882 20.5643 31.3223 13.6475C23.812 12.4117 15.7446 17.5004 11.6356 22.9816C7.80514 28.0913 9.97058 34.5414 13.3936 36.2707C13.6968 35.8683 13.999 35.4955 14.2987 35.1621C14.2987 35.1621 14.8936 35.3221 15.1515 35.3264C13.6964 37.4327 12.4797 39.3412 11.6017 40.767Z" fill="#2DCA73"/>
<path d="M96 17H97.9755V21.0293H98.0423C98.1402 20.6392 98.3626 20.32 98.7097 20.0718C99.0657 19.8236 99.4705 19.6995 99.9244 19.6995C100.814 19.6995 101.486 20.0098 101.94 20.6303C102.394 21.2509 102.621 22.1551 102.621 23.3431C102.621 24.531 102.394 25.4397 101.94 26.0691C101.486 26.6897 100.814 27 99.9244 27C99.693 27 99.475 26.9645 99.2703 26.8936C99.0657 26.8316 98.8788 26.7429 98.7097 26.6277C98.5495 26.5035 98.4116 26.3617 98.2959 26.2021C98.1802 26.0337 98.0957 25.8564 98.0423 25.6702H97.9755V26.8404H96V17ZM99.2703 25.4043C99.6441 25.4043 99.9511 25.2757 100.191 25.0186C100.441 24.7527 100.565 24.398 100.565 23.9548V22.7447C100.565 22.3014 100.441 21.9512 100.191 21.6941C99.9511 21.4282 99.6441 21.2952 99.2703 21.2952C98.8966 21.2952 98.5851 21.3883 98.3359 21.5745C98.0957 21.7518 97.9755 22 97.9755 22.3191V24.3803C97.9755 24.6995 98.0957 24.9521 98.3359 25.1383C98.5851 25.3156 98.8966 25.4043 99.2703 25.4043Z" fill="#2DCA73"/>
<path d="M107.044 27C106.51 27 106.034 26.9158 105.616 26.7473C105.198 26.57 104.842 26.3262 104.548 26.016C104.263 25.6968 104.045 25.3112 103.894 24.859C103.752 24.4069 103.681 23.9016 103.681 23.3431C103.681 22.7934 103.752 22.297 103.894 21.8537C104.037 21.4016 104.246 21.016 104.522 20.6968C104.806 20.3777 105.153 20.1339 105.563 19.9654C105.972 19.7881 106.439 19.6995 106.964 19.6995C107.543 19.6995 108.037 19.797 108.446 19.992C108.864 20.1871 109.202 20.4486 109.46 20.7766C109.727 21.1046 109.919 21.4858 110.034 21.9202C110.159 22.3457 110.221 22.7934 110.221 23.2633V23.8484H105.723V23.9548C105.723 24.4158 105.847 24.7837 106.097 25.0585C106.346 25.3245 106.737 25.4574 107.271 25.4574C107.681 25.4574 108.014 25.3777 108.272 25.2181C108.53 25.0496 108.771 24.8502 108.993 24.6197L109.981 25.8431C109.669 26.2066 109.26 26.4902 108.753 26.6941C108.255 26.898 107.685 27 107.044 27ZM107.004 21.1489C106.604 21.1489 106.288 21.2819 106.057 21.5479C105.834 21.805 105.723 22.1507 105.723 22.5851V22.6915H108.179V22.5718C108.179 22.1463 108.081 21.805 107.885 21.5479C107.698 21.2819 107.405 21.1489 107.004 21.1489Z" fill="#2DCA73"/>
<path d="M114.073 26.8404C113.387 26.8404 112.867 26.6676 112.511 26.3218C112.164 25.9761 111.99 25.4707 111.99 24.8059V21.3883H111.002V19.859H111.496C111.763 19.859 111.946 19.797 112.044 19.6729C112.141 19.5399 112.19 19.3537 112.19 19.1144V17.9707H113.966V19.859H115.354V21.3883H113.966V25.3112H115.247V26.8404H114.073Z" fill="#2DCA73"/>
<path d="M121.905 26.8404C121.549 26.8404 121.251 26.7296 121.011 26.508C120.78 26.2863 120.633 25.9894 120.571 25.617H120.491C120.384 26.0691 120.148 26.4149 119.783 26.6543C119.418 26.8848 118.969 27 118.435 27C117.732 27 117.194 26.8138 116.82 26.4415C116.446 26.0691 116.259 25.5771 116.259 24.9654C116.259 24.2296 116.526 23.6844 117.06 23.3298C117.603 22.9663 118.337 22.7846 119.262 22.7846H120.37V22.3457C120.37 22.0089 120.281 21.7429 120.103 21.5479C119.925 21.344 119.627 21.242 119.209 21.242C118.818 21.242 118.506 21.3262 118.275 21.4947C118.043 21.6631 117.852 21.8537 117.701 22.0665L116.526 21.0293C116.811 20.6126 117.167 20.289 117.594 20.0585C118.03 19.8191 118.617 19.6995 119.356 19.6995C120.353 19.6995 121.1 19.9167 121.598 20.3511C122.097 20.7855 122.346 21.4193 122.346 22.2527V25.3112H123V26.8404H121.905ZM119.169 25.6303C119.498 25.6303 119.779 25.5594 120.01 25.4176C120.25 25.2757 120.37 25.0452 120.37 24.7261V23.9016H119.409C118.635 23.9016 118.248 24.1631 118.248 24.6862V24.8856C118.248 25.1427 118.328 25.3333 118.488 25.4574C118.648 25.5727 118.875 25.6303 119.169 25.6303Z" fill="#2DCA73"/>
</svg>
