<svg xmlns="http://www.w3.org/2000/svg" xmlns:xlink="http://www.w3.org/1999/xlink" width="0" height="0" style="display:none;"><symbol viewBox="0 0 16 10" id="icon-arrow-down_16x10">
    <path fill-rule="evenodd" clip-rule="evenodd" d="M15.85.649a.513.513 0 0 0-.722 0L8 7.732.872.649a.513.513 0 0 0-.722 0c-.2.198-.2.519 0 .717L8 9.166l7.85-7.8c.2-.198.2-.52 0-.717z"/>
</symbol><symbol viewBox="0 0.75 14 10.5" id="icon-arrow-right_14x12">
    <path d="M8.471.882a.452.452 0 0 0 0 .636l4.004 4.032H.447A.448.448 0 0 0 0 6c0 .249.2.45.447.45h12.028L8.47 10.482a.452.452 0 0 0 0 .636.445.445 0 0 0 .632 0l4.766-4.8A.448.448 0 0 0 14 6a.45.45 0 0 0-.13-.318L9.103.882a.445.445 0 0 0-.632 0z"/>
</symbol><symbol viewBox="0 0 24 24" id="icon-back_24x24">
    <path d="M1.5 12h21M6 7.5 1.5 12 6 16.5" stroke-width="1.5" stroke-linecap="round"/>
</symbol><symbol viewBox="0 0 16 16" id="icon-check_16x16">
    <path fill-rule="evenodd" clip-rule="evenodd" d="M15.84 2.14c.205.196.214.521.02.728L5.563 13.839a.509.509 0 0 1-.743 0L.14 8.852a.517.517 0 0 1 .02-.727.508.508 0 0 1 .722.02l4.31 4.592 9.926-10.576a.508.508 0 0 1 .722-.02z"/>
</symbol><symbol viewBox="0 0 25 24" id="icon-checker-24x24">
    <path d="m8 11 3 3 6-6" stroke-width="1.5" stroke-linecap="round" stroke-linejoin="round"/>
    <path d="M7.186 19.454a.75.75 0 0 0-.347-.874c-3.098-1.755-5.089-4.76-5.089-8.122C1.75 5.19 6.687.75 13 .75s11.25 4.44 11.25 9.708c0 5.267-4.937 9.707-11.25 9.707-.53 0-1.052-.031-1.562-.093a.75.75 0 0 0-.51.124 12.112 12.112 0 0 1-4.932 1.908c.494-.812.896-1.702 1.19-2.65z" stroke-width="1.5" stroke-linecap="round" stroke-linejoin="round"/>
</symbol><symbol viewBox="0 0 24 24" id="icon-chevron-right_24x24">
    <path d="m6 1 11 11L6 23" stroke-width="1.5" stroke-linecap="round"/>
</symbol><symbol viewBox="0 0 53 54" id="icon-clock_54x57">
    <path d="M4.466 17.8C8.017 9.674 16.125 4 25.553 4c12.703 0 23 10.297 23 23s-10.297 23-23 23c-4.14 0-8.018-1.092-11.37-3.002-1.358-1.102-2.006-3.346-2.705-5.767-.687-2.377-1.423-4.924-2.927-6.73C3.553 28.5.169 35.5 4.552 43c1.464 2.504 3.485 4.604 5.508 6.174l-.013.022.186.111c1.73 1.316 3.45 2.242 4.813 2.696.649.216 1.216.39 1.706.53A26.965 26.965 0 0 0 25.553 54c14.912 0 27-12.088 27-27s-12.088-27-27-27C14.478 0 4.965 6.668.801 16.2L0 18.031l3.665 1.601.801-1.832z"/>
    <path d="M22.553 11h4v16.128l6.224-4.416 2.315 3.262-9.381 6.657L22.554 31V11z"/>
</symbol><symbol viewBox="0 0 14 14" id="icon-close-thin_14x14">
    <path fill-rule="evenodd" clip-rule="evenodd" d="M12.524.857a.437.437 0 1 1 .619.619L7.619 7l5.524 5.524a.438.438 0 0 1-.619.619L7 7.619l-5.524 5.524a.438.438 0 0 1-.619-.62L6.381 7 .857 1.476a.438.438 0 0 1 .62-.619L7 6.381 12.524.857z"/>
</symbol><symbol viewBox="0 0 14 14" id="icon-close14-14">
    <path fill-rule="evenodd" clip-rule="evenodd" d="m0 2 2-2 5 5 5-5 2 2-5 5 5 5-2 2-5-5-5 5-2-2 5-5-5-5z"/>
</symbol><symbol viewBox="0 0 20 20" id="icon-close_20x20">
    <path d="m3.333 3.333 13.334 13.333M16.666 3.333 3.333 16.666" stroke-width="2" stroke-linecap="round"/>
</symbol><symbol viewBox="0 0 24 24" id="icon-close_24x24">
    <path d="m4 4 16 16M20 4 4 20" stroke-width="2" stroke-linecap="round"/>
</symbol><symbol viewBox="0 0 14 14" id="icon-delete_14x14">
    <path fill-rule="evenodd" clip-rule="evenodd" d="M5.476 0a1.88 1.88 0 0 0-1.76 1.262L3.1 2.979H1.03a.447.447 0 0 0 0 .893h.183l.653 8.376c.08 1.008.957 1.752 1.97 1.752h6.326c1.015 0 1.894-.747 1.97-1.757l.632-8.37h.181a.447.447 0 1 0 0-.894h-2.069l-.618-1.717A1.88 1.88 0 0 0 8.498 0H5.477zm5.076 3.872h1.315l-.626 8.303c-.038.505-.49.931-1.079.931H3.836c-.588 0-1.04-.425-1.08-.928L2.11 3.872H10.553zm-.626-.893-.509-1.414A.987.987 0 0 0 8.5.894H5.476a.987.987 0 0 0-.918.67l-.51 1.415h5.878zM7.434 6.404a.447.447 0 1 0-.893 0v4.17a.447.447 0 1 0 .893 0v-4.17zm1.937-.447c.246 0 .446.2.446.447v4.17a.447.447 0 1 1-.893 0v-4.17c0-.247.2-.447.447-.447zm-4.32.447a.447.447 0 0 0-.893 0v4.17a.447.447 0 1 0 .893 0v-4.17z"/>
</symbol><symbol viewBox="0 0 16 16" id="icon-delete_16x16">
    <path fill-rule="evenodd" clip-rule="evenodd" d="M6 2a.5.5 0 0 0 0 1h4a.5.5 0 0 0 0-1H6zM2.833 4.667a.5.5 0 0 1 .5-.5h9.334a.5.5 0 1 1 0 1H12.5V12c0 1.013-.82 1.833-1.833 1.833H5.334A1.833 1.833 0 0 1 3.5 12V5.167h-.167a.5.5 0 0 1-.5-.5zM4.5 12V5.167h7V12c0 .46-.373.833-.833.833H5.334A.833.833 0 0 1 4.5 12zm2.167-5.167a.5.5 0 0 1 .5.5v3.334a.5.5 0 0 1-1 0V7.333a.5.5 0 0 1 .5-.5zm3.167.5a.5.5 0 0 0-1 0v3.334a.5.5 0 0 0 1 0V7.333z"/>
</symbol><symbol viewBox="0 0 43 54" id="icon-doc_43x54">
    <path fill-rule="evenodd" clip-rule="evenodd" d="M5 0a5 5 0 0 0-5 5v44a5 5 0 0 0 5 5h31.5a2 2 0 0 0 1.416-3.412c-.509-1.245-1.075-2.813-1.407-4.313 1.745-.03 3.452-.074 4.528-.104a1.168 1.168 0 0 0 1.135-1.17v-3.966c0-.648-.524-1.173-1.171-1.173h-4.46c.168-1.313.37-2.554.53-3.454A1.198 1.198 0 0 0 35.9 35h-4.83a1.15 1.15 0 0 0-1.138.94 76.34 76.34 0 0 0-.613 3.922h-4.147c-.648 0-1.172.525-1.172 1.173v3.967c0 .633.503 1.151 1.136 1.17.962.026 2.43.064 3.978.093.112 1.276.293 2.6.47 3.735H5a1 1 0 0 1-1-1V5a1 1 0 0 1 1-1h32a1 1 0 0 1 1 1v23h4V5a5 5 0 0 0-5-5H5zm27 20H10v-4h22v4zm-10 8H10v-4h12v4z"/>
</symbol><symbol viewBox="0 0 32 32" id="icon-drops_32x32">
    <path fill-rule="evenodd" clip-rule="evenodd" d="M24 18.667c3.682 0 6.666-3.077 6.666-6.666 0-3.59-4-8-6.666-10.667-2.667 2.667-6.667 7.077-6.667 10.667s2.985 6.666 6.667 6.666zM9.333 29.334a8 8 0 0 0 8-8c0-4.418-4-9.333-8-13.333-4 4-8 8.915-8 13.333a8 8 0 0 0 8 8z"/>
</symbol><symbol viewBox="0 0 24 24" id="icon-email_24x24">
    <path d="M20.222 5H3.778C2.796 5 2 5.796 2 6.778v10.444C2 18.204 2.796 19 3.778 19h16.444c.982 0 1.778-.796 1.778-1.778V6.778C22 5.796 21.204 5 20.222 5z" stroke-width="1.333"/>
    <path d="m5 9 7 5 7-5" stroke-width="1.333" stroke-linecap="round" stroke-linejoin="round"/>
</symbol><symbol viewBox="0 0 16 16" id="icon-erase_16x16">
    <path fill-rule="evenodd" clip-rule="evenodd" d="M16 8A8 8 0 1 1 0 8a8 8 0 0 1 16 0zM4.53 4.658a.75.75 0 0 1 1.061 0l2.376 2.375L10.47 4.53a.75.75 0 1 1 1.06 1.061L9.027 8.094l2.574 2.574a.75.75 0 0 1-1.06 1.061L7.967 9.155 5.52 11.6a.75.75 0 1 1-1.06-1.06l2.446-2.447L4.53 5.72a.75.75 0 0 1 0-1.061z"/>
</symbol><symbol viewBox="0 0 18 18" id="icon-escape_18x18">
    <path fill-rule="evenodd" clip-rule="evenodd" d="M9 18A9 9 0 1 0 9 0a9 9 0 0 0 0 18zM4.668 4.667a.576.576 0 0 1 .812 0l3.543 3.525 3.497-3.478a.576.576 0 0 1 .812 0 .57.57 0 0 1 0 .808L9.836 9l3.496 3.478a.57.57 0 0 1 0 .808.576.576 0 0 1-.812 0L9.023 9.808 5.48 13.333a.576.576 0 0 1-.812 0 .57.57 0 0 1 0-.808L8.211 9 4.668 5.475a.57.57 0 0 1 0-.808z"/>
</symbol><symbol viewBox="0 0 30 28" id="icon-heart_30x28">
    <path fill-rule="evenodd" clip-rule="evenodd" d="M27.15 15.25a8.51 8.51 0 0 0 0-12.082c-3.355-3.336-8.795-3.336-12.15 0-3.355-3.336-8.795-3.336-12.15 0a8.51 8.51 0 0 0 0 12.082L15 27.334 27.15 15.25z"/>
</symbol><symbol viewBox="0 0 55 49" id="icon-heart_55x52">
    <path d="M53.658 19.011C56.39 5.463 42.424-4.267 30.578 1.887l1.844 3.55C41.464.739 51.765 8.162 49.737 18.22c-.266 1.319-1.24 3.108-2.947 5.315-1.667 2.157-3.875 4.514-6.34 6.953-2.412 2.386-5.028 4.808-7.57 7.161l-.153.142c-2.019 1.87-3.994 3.701-5.75 5.412a382.162 382.162 0 0 0-5.111-4.708l-.713-.65c-2.588-2.356-5.234-4.782-7.66-7.18-2.43-2.405-4.596-4.74-6.237-6.91-1.67-2.208-2.656-4.066-2.95-5.522C3.138 12.469 5.44 8.22 8.965 5.987c2.493-1.579 5.67-2.196 8.849-1.541 2.407 1.27 3.118 3.147 3.85 5.077.188.494.377.992.596 1.484 1.583 3.56 6.297 4.312 6.751-.815.173-1.948-.636-5.95-6.605-8.403-5.293-2.48-11.161-1.981-15.581.82C1.879 5.741-1.105 11.661.385 19.026c.475 2.348 1.9 4.787 3.68 7.141 1.809 2.391 4.129 4.881 6.616 7.34 2.49 2.465 5.193 4.941 7.778 7.296l.706.643c2.339 2.129 4.55 4.142 6.44 5.982l1.42 1.384 1.396-1.41c1.997-2.016 4.432-4.276 7.024-6.676l.175-.161c2.526-2.34 5.183-4.8 7.643-7.234 2.512-2.485 4.864-4.985 6.692-7.35 1.79-2.314 3.247-4.71 3.703-6.97z"/>
</symbol><symbol viewBox="0 0 25 25" id="icon-help_25x25">
    <path d="M12.125 22.25c5.523 0 10-4.477 10-10s-4.477-10-10-10-10 4.477-10 10 4.477 10 10 10z" stroke-width="2" stroke-linecap="round" stroke-linejoin="round"/>
    <path d="M9.215 9.25a3 3 0 0 1 5.83 1c0 2-3 3-3 3M12.125 17.25h.01" stroke-width="2" stroke-linecap="round" stroke-linejoin="round"/>
</symbol><symbol viewBox="0 0 24 24" id="icon-home_24x24">
    <path d="M3.75 12v9.75h5.797v-5.723c0-1.287 1.098-2.331 2.453-2.331 1.355 0 2.453 1.044 2.453 2.331v5.723h5.797V12m3-1.5L12 2.25.75 10.5" stroke-width="1.5" stroke-linecap="round" stroke-linejoin="round"/>
</symbol><symbol viewBox="0 0 30 25" id="icon-kidney_30x25">
    <path fill-rule="evenodd" clip-rule="evenodd" d="M12.333 4.267C12.333 1.91 9.946 0 7.002 0 4.396 0 3.306 1.71 2.135 3.547c-.153.239-.306.48-.465.72-1.481 2.239-1.333 6.4-1.333 6.4s-.148 4.16 1.333 6.4c.159.24.312.48.465.72 1.17 1.836 2.261 3.546 4.867 3.546 2.944 0 5.331-1.91 5.331-4.266 0-1.161-.647-2.125-1.303-3.103-.676-1.007-1.363-2.03-1.363-3.297 0-.659.185-1.251.458-1.81 1.332.345 2.277.9 2.935 1.51 1.094 1.013 1.44 2.212 1.44 2.966V24a.5.5 0 1 0 1 0V13.333c0-.754.345-1.953 1.44-2.966.657-.61 1.602-1.165 2.934-1.51.273.559.458 1.151.458 1.81 0 1.268-.686 2.29-1.362 3.297-.657.978-1.304 1.942-1.304 3.103 0 2.356 2.387 4.266 5.332 4.266 2.605 0 3.695-1.71 4.866-3.546.153-.24.307-.48.465-.72 1.482-2.24 1.333-6.4 1.333-6.4s.149-4.161-1.333-6.4c-.158-.24-.312-.481-.465-.72C26.694 1.71 25.605 0 22.998 0c-2.945 0-5.332 1.91-5.332 4.267 0 1.16.647 2.124 1.304 3.102.132.197.264.393.391.592-1.341.385-2.354.98-3.101 1.672a5.706 5.706 0 0 0-1.26 1.68 5.708 5.708 0 0 0-1.26-1.68c-.748-.692-1.76-1.287-3.102-1.672.128-.199.26-.396.392-.592.656-.978 1.303-1.941 1.303-3.102z"/>
</symbol><symbol viewBox="0 0 25 24" id="icon-knowledge-24x24">
    <path d="M4.75 2.293V15.75a3 3 0 0 0 3 3h12V3.835H6.302c-.857 0-1.552-.69-1.552-1.542zm0 0C4.75 1.44 5.445.75 6.302.75H19.75m-6.75 18h3.75v4.5l-1.875-1.5L13 23.25v-4.5z" stroke-width="1.5" stroke-linecap="round" stroke-linejoin="round"/>
</symbol><symbol viewBox="0 0 20 20" id="icon-list_20x20">
    <path d="M14.4 9H8.6c-.552 0-.6.447-.6 1 0 .553.048 1 .6 1h5.8c.552 0 .6-.447.6-1 0-.553-.048-1-.6-1zm2 5H8.6c-.552 0-.6.447-.6 1 0 .553.048 1 .6 1h7.8c.552 0 .6-.447.6-1 0-.553-.048-1-.6-1zM8.6 6h7.8c.552 0 .6-.447.6-1 0-.553-.048-1-.6-1H8.6c-.552 0-.6.447-.6 1 0 .553.048 1 .6 1zM5.4 9H3.6c-.552 0-.6.447-.6 1 0 .553.048 1 .6 1h1.8c.552 0 .6-.447.6-1 0-.553-.048-1-.6-1zm0 5H3.6c-.552 0-.6.447-.6 1 0 .553.048 1 .6 1h1.8c.552 0 .6-.447.6-1 0-.553-.048-1-.6-1zm0-10H3.6c-.552 0-.6.447-.6 1 0 .553.048 1 .6 1h1.8c.552 0 .6-.447.6-1 0-.553-.048-1-.6-1z"/>
</symbol><symbol viewBox="0 0 32 32" id="icon-liver_32x32">
    <path d="M20.142 17.993c-.182 1.597-1.111 3.01-2.55 3.875-3.9 2.347-10.621 6.4-11.822 7.166-.406.26-.852.397-1.287.397-1.477 0-2.473-1.46-2.539-3.722-.06-2.055-.426-3.49-.851-5.151-.32-1.25-.649-2.538-.912-4.29-.24-1.594-.761-7.072 2.57-10.627C4.662 3.6 7.526 2.564 11.262 2.564c.166 0 .334.003.505.007 2.435.058 4.311.82 5.736 2.33 3.204 3.392 3.028 9.659 2.638 13.092zm11.455-10.61c-1.775-2.228-9.594-2.29-9.672-2.29-.592 0-.757.025-.932.142a1.075 1.075 0 0 0-.362.438.656.656 0 0 0-.009.558c1.57 3.48 1.475 8.008 1.28 10.397-.023.267-.069.54-.137.814a.655.655 0 0 0 .558.81c.06.007.12.01.184.01 1.68 0 4.56-2.763 5.402-3.61 1.71-1.718 3.67-4.137 4.045-5.771.122-.534-.001-1.051-.357-1.498z"/>
</symbol><symbol viewBox="0 0 12 12" id="icon-logout_12x12">
    <path fill-rule="evenodd" clip-rule="evenodd" d="M1.875.767A1.12 1.12 0 0 0 .75 1.884v8.243c0 .612.5 1.12 1.13 1.117l2.899-.013a.38.38 0 0 1 .376.382.37.37 0 0 1-.373.374L1.884 12A1.87 1.87 0 0 1 0 10.127V1.884A1.88 1.88 0 0 1 1.875 0h3a.38.38 0 0 1 .375.383.38.38 0 0 1-.375.384h-3zM3.5 6.006a.38.38 0 0 1 .375-.384H9.91L7.62 3.477a.39.39 0 0 1-.022-.542.37.37 0 0 1 .53-.023l2.996 2.808a.385.385 0 0 1 .125.286c0 .107-.044.21-.122.282l-3 2.811a.37.37 0 0 1-.53-.023.39.39 0 0 1 .024-.542L9.91 6.39H3.875a.38.38 0 0 1-.375-.384z"/>
</symbol><symbol viewBox="0 0 24 18" id="icon-long-right_24x18">
    <path d="M14.522.226c-.299.301-.299.79 0 1.09l6.863 6.913H.766A.769.769 0 0 0 0 9c0 .426.343.771.766.771h20.619l-6.863 6.912c-.299.301-.299.79 0 1.091.3.301.784.301 1.083 0l8.17-8.229A.767.767 0 0 0 24 9a.772.772 0 0 0-.223-.545l-8.17-8.23a.762.762 0 0 0-1.084 0z"/>
</symbol><symbol viewBox="0 0 22 18" id="icon-mail_22x18">
    <path fill-rule="evenodd" clip-rule="evenodd" d="M3 0a3 3 0 0 0-3 3v12a3 3 0 0 0 3 3h16a3 3 0 0 0 3-3V3a3 3 0 0 0-3-3H3zm-.895 2.553A1 1 0 0 1 3 2h16a1 1 0 0 1 .895.553L11 8.779 2.105 2.553zM2 4.921V15a1 1 0 0 0 1 1h16a1 1 0 0 0 1-1V4.92l-8.427 5.9a1 1 0 0 1-1.146 0L2 4.92z"/>
</symbol><symbol viewBox="0 0 14 14" id="icon-minus_14x14">
    <path fill-rule="evenodd" clip-rule="evenodd" d="M0 7c0-.322.2-.583.447-.583h13.106c.247 0 .447.26.447.583 0 .322-.2.583-.447.583H.447C.2 7.583 0 7.322 0 7z"/>
</symbol><symbol viewBox="0 0 16 16" id="icon-pensil_16x16">
    <path fill-rule="evenodd" clip-rule="evenodd" d="m10.225 3.375 2.254-2.254a.34.34 0 0 1 .482 0l.144.145 1.774 1.773a.34.34 0 0 1 0 .482l-2.254 2.254-1.516-1.516-.884-.884zm-.722.722L1.121 12.48v.001a.339.339 0 0 0-.1.24v2.259H3.28a.34.34 0 0 0 .24-.1l1.522-1.521 6.86-6.861-1.37-1.371-1.029-1.029zM.511 16H3.28c.36 0 .707-.143.963-.4h.001L15.6 4.244a1.361 1.361 0 0 0 0-1.927L13.684.399a1.362 1.362 0 0 0-1.926 0L.4 11.756a1.36 1.36 0 0 0-.4.964v2.77c0 .281.229.51.51.51z"/>
</symbol><symbol viewBox="0 0 22 22" id="icon-phone_20x20">
    <path d="M20.888 15.92v3a2 2 0 0 1-2.18 2 19.791 19.791 0 0 1-8.63-3.07 19.5 19.5 0 0 1-6-6 19.79 19.79 0 0 1-3.07-8.67A2 2 0 0 1 2.998 1h3a2 2 0 0 1 2 1.72c.127.96.362 1.903.7 2.81a2 2 0 0 1-.45 2.11l-1.27 1.27a16 16 0 0 0 6 6l1.27-1.27a2 2 0 0 1 2.11-.45c.907.339 1.85.574 2.81.7a2 2 0 0 1 1.72 2.03z" stroke-width="2" stroke-linecap="round" stroke-linejoin="round"/>
</symbol><symbol viewBox="0 0 16 16" id="icon-pin_16x16">
    <path d="M3.418 6.697v-.115a4.582 4.582 0 1 1 9.164 0v.115c0 2.307-2.921 5.78-4.099 7.087a.649.649 0 0 1-.966 0c-1.178-1.307-4.099-4.78-4.099-7.087v0z" stroke-linecap="round" stroke-linejoin="round"/>
    <path d="M6.666 6.637a1.333 1.333 0 1 0 2.667 0v-.025a1.333 1.333 0 1 0-2.667 0" stroke-linecap="round" stroke-linejoin="round"/>
</symbol><symbol viewBox="0 0 24 24" id="icon-pin_24x24">
    <path d="M12 13a3 3 0 1 1 0-6 3 3 0 0 1 0 6z" stroke-width="1.5" stroke-linecap="round" stroke-linejoin="round"/>
    <path d="M12 21s-7-5.75-7-11a7 7 0 1 1 14 0c0 5.25-7 11-7 11z" stroke-width="1.5" stroke-linecap="round" stroke-linejoin="round"/>
</symbol><symbol viewBox="0 0 14 14" id="icon-plus_14x14">
    <path fill-rule="evenodd" clip-rule="evenodd" d="M7.583.447C7.583.2 7.323 0 7 0c-.322 0-.583.2-.583.447v5.97H.447C.2 6.417 0 6.677 0 7c0 .322.2.583.447.583h5.97v5.97c0 .247.26.447.583.447.322 0 .583-.2.583-.447v-5.97h5.97c.247 0 .447-.26.447-.583 0-.322-.2-.583-.447-.583h-5.97V.447z"/>
</symbol><symbol viewBox="0 0 32 32" id="icon-prostate_32x32">
    <path fill-rule="evenodd" clip-rule="evenodd" d="M30.53 5.664a12.164 12.164 0 0 1 .688 7.664 2.791 2.791 0 0 1-4.137 1.747 2.822 2.822 0 0 1-1.29-3.082 6.577 6.577 0 0 0-.363-4.05 2.822 2.822 0 0 1 .72-3.261 2.793 2.793 0 0 1 4.382.982zm-29.515 0a12.163 12.163 0 0 0-.688 7.664 2.792 2.792 0 0 0 4.137 1.747 2.822 2.822 0 0 0 1.289-3.082 6.575 6.575 0 0 1 .364-4.05 2.822 2.822 0 0 0-.72-3.261 2.792 2.792 0 0 0-4.382.982zm14.06 14.425h1.395c.89 0 1.709.306 2.356.819l.54-.303a3.875 3.875 0 0 0 1.974-3.374v-2.297a5.907 5.907 0 0 1 4.478-5.722 6.57 6.57 0 0 1 .088 2.094 3.872 3.872 0 0 0-2.54 3.628v2.299a5.903 5.903 0 0 1-3.007 5.14l-.329.185a3.8 3.8 0 0 1-3.56 5.13h-1.395a3.8 3.8 0 0 1-3.56-5.13l-.33-.185a5.904 5.904 0 0 1-3.007-5.14v-2.299a3.873 3.873 0 0 0-2.54-3.628 6.57 6.57 0 0 1 .088-2.094 5.907 5.907 0 0 1 4.479 5.722v2.297a3.874 3.874 0 0 0 1.973 3.374l.54.303a3.783 3.783 0 0 1 2.357-.82z"/>
</symbol><symbol viewBox="-1 -1 16 16" id="icon-repeat_14x14">
    <path fill-rule="evenodd" clip-rule="evenodd" d="M7 0a7 7 0 1 0 7 7 .447.447 0 1 0-.894 0 6.107 6.107 0 1 1-1.051-3.426H9.979a.447.447 0 1 0 0 .894h2.979c.246 0 .447-.2.447-.447V1.042a.447.447 0 1 0-.894 0v1.643A6.987 6.987 0 0 0 7 0z"/>
</symbol><symbol viewBox="0 0 18 18" id="icon-search_18x18">
    <path fill-rule="evenodd" clip-rule="evenodd" d="M7.851 1.149a6.702 6.702 0 1 0 0 13.404 6.702 6.702 0 0 0 0-13.404zM0 7.85a7.851 7.851 0 1 1 15.702 0A7.851 7.851 0 0 1 0 7.851z"/>
    <path fill-rule="evenodd" clip-rule="evenodd" d="m13.642 12.83 4.19 4.19a.574.574 0 1 1-.813.812l-4.19-4.19c-.14-.14.673-.952.813-.812z"/>
</symbol><symbol viewBox="0 0 26 25" id="icon-star_26x25">
    <path d="M11.286 1.847c.778-1.291 2.65-1.291 3.428 0L17.5 6.478a2 2 0 0 0 1.263.917l5.265 1.22c1.469.34 2.048 2.121 1.06 3.26l-3.544 4.08a2 2 0 0 0-.482 1.485l.467 5.384c.13 1.502-1.384 2.603-2.772 2.015L13.78 22.73a2 2 0 0 0-1.56 0l-4.977 2.108c-1.388.588-2.903-.513-2.772-2.015l.467-5.384a2 2 0 0 0-.482-1.484L.913 11.874c-.989-1.138-.41-2.919 1.059-3.26l5.265-1.219A2 2 0 0 0 8.5 6.478l2.786-4.63z"/>
    <path d="M11.286 1.847c.778-1.291 2.65-1.291 3.428 0L17.5 6.478a2 2 0 0 0 1.263.917l5.265 1.22c1.469.34 2.048 2.121 1.06 3.26l-3.544 4.08a2 2 0 0 0-.482 1.485l.467 5.384c.13 1.502-1.384 2.603-2.772 2.015L13.78 22.73a2 2 0 0 0-1.56 0l-4.977 2.108c-1.388.588-2.903-.513-2.772-2.015l.467-5.384a2 2 0 0 0-.482-1.484L.913 11.874c-.989-1.138-.41-2.919 1.059-3.26l5.265-1.219A2 2 0 0 0 8.5 6.478l2.786-4.63z"/>
    <defs>
        <lineargradient id="a" x1="-7.5" y1="-6.5" x2="18.5" y2="25" gradientunits="userSpaceOnUse">
            <stop stop-color="#fff"/>
            <stop offset="1" stop-color="#fff" stop-opacity="0"/>
        </lineargradient>
    </defs>
</symbol><symbol viewBox="0 0 32 32" id="icon-thermo_32x32">
    <g clip-path="url(#a)">
        <path fill-rule="evenodd" clip-rule="evenodd" d="M22 14.008V6a6 6 0 0 0-12 0v8.008a10 10 0 1 0 12 0zm-6 15.325a7.333 7.333 0 0 1-3.947-13.506 1.324 1.324 0 0 0 .614-1.123V6a3.333 3.333 0 1 1 6.666 0v8.704a1.321 1.321 0 0 0 .614 1.123A7.333 7.333 0 0 1 16 29.333zM18 17.8V9.897a.564.564 0 0 0-.56-.564h-2.88a.564.564 0 0 0-.56.564V17.8a4.666 4.666 0 1 0 4 0z" fill="#FEA07E"/>
    </g>
    <defs>
        <clippath id="a">
            <path fill="#fff" d="M0 0h32v32H0z"/>
        </clippath>
    </defs>
</symbol><symbol viewBox="0 0 32 32" id="icon-thyroid_32x32">
    <g clip-path="url(#a)">
        <path fill-rule="evenodd" clip-rule="evenodd" d="m6.001 2.667.01.008.307.296.064.063.3.296.026.026c1.075 1.078 2.257 2.458 3.18 4.565l-.002.002c.282.655.524 1.325.726 2.007.187.644.351 1.342.486 2.101h.001A9.808 9.808 0 0 1 16 10.8a9.807 9.807 0 0 1 4.9 1.232l.025-.14a18.042 18.042 0 0 1 1.189-3.968l-.004-.003c.923-2.107 2.105-3.486 3.18-4.564l.026-.026c.101-.101.201-.2.3-.296l.064-.063.308-.296.01-.009c1.804.87 3.442 2.035 3.442 3.654 0 .73.37 1.459.827 2.363C31.015 10.16 32 12.105 32 15.28c0 2.25-.659 3.62-1.204 4.757-.386.803-.716 1.488-.716 2.283 0 1.92-1.664 8.32-5.12 8.32a7.935 7.935 0 0 1-1.203-.096 14.833 14.833 0 0 1-3.276-.908V26.807l-.085.024c.056-.126.085-.263.085-.403V23.6a16.53 16.53 0 0 1-4.48.632 16.529 16.529 0 0 1-4.48-.632v2.827c0 .14.03.277.084.403l-.084-.024V29.636h-.001a12.997 12.997 0 0 1-4.48 1.004 2.65 2.65 0 0 1-.717-.096c-2.97-.8-4.403-6.444-4.403-8.224 0-.795-.33-1.48-.715-2.284C.659 18.901 0 17.53 0 15.28c0-3.175.985-5.12 1.733-6.597.458-.904.827-1.634.827-2.363C2.56 4.702 4.197 3.537 6 2.667zm10 24.772c-.136 0-.27-.003-.406-.006h.812c-.136.003-.27.006-.406.006z" fill="#FEA07E"/>
    </g>
    <defs>
        <clippath id="a">
            <path fill="#fff" d="M0 0h32v32H0z"/>
        </clippath>
    </defs>
</symbol><symbol viewBox="0 0 24 24" id="icon-track_24x24">
    <path d="M15 8h4.323c.409 0 .777.249.928.629l1.606 4.014c.094.236.143.488.143.742v5.948a1 1 0 0 1-1 1h-1.831M16 20.42H8.17" stroke-width="1.5" stroke-linecap="round" stroke-linejoin="round"/>
    <path d="M22 15h-4v-4h3.2M4 6h10a1 1 0 0 1 1 1v9H2M18.704 19.296a1.584 1.584 0 1 1-2.24 2.24 1.584 1.584 0 0 1 2.24-2.24zM7.704 19.296a1.584 1.584 0 1 1-2.24 2.24 1.584 1.584 0 0 1 2.24-2.24z" stroke-width="1.5" stroke-linecap="round" stroke-linejoin="round"/>
    <path d="M5 20.416H3a1 1 0 0 1-1-1V7a1 1 0 0 1 1-1h1.238" stroke-width="1.5" stroke-linecap="round" stroke-linejoin="round"/>
</symbol><symbol viewBox="0 0 28 28" id="icon-tube_28x28">
    <path d="m24.96 9.718-4.157 4.157c-.573.574-2.59-.511-4.503-2.425-1.914-1.913-3-3.93-2.425-4.503l4.157-4.158m6.929 6.929c-.574.574-2.59-.512-4.504-2.425-1.913-1.913-2.999-3.93-2.425-4.504m6.929 6.929c.574-.574-.512-2.59-2.425-4.504-1.914-1.913-3.93-2.999-4.504-2.425" stroke-width="1.5"/>
    <path d="M13.874 8.332 4.52 17.686a3.92 3.92 0 1 0 5.543 5.543l9.354-9.354" stroke-width="1.5"/>
</symbol><symbol viewBox="0 0 26 26" id="icon-update_26x26">
    <g clip-path="url(#a)">
        <path fill-rule="evenodd" clip-rule="evenodd" d="M12.954 5.128c-2.07 0-3.964.774-5.41 2.049L5.528 6.013a10.384 10.384 0 0 1 7.426-3.124c5.252 0 9.574 3.846 10.316 8.943l.115.628.944-1.1a.949.949 0 0 1 1.341-.1.958.958 0 0 1 .1 1.347l-2.904 3.38-3.722-2.153a.956.956 0 0 1-.349-1.303.949.949 0 0 1 1.297-.351l1.096.633-.046-.25h-.018c-.41-4.152-3.95-7.435-8.17-7.435zm.092 16.49a8.155 8.155 0 0 0 5.424-2.061l2.015 1.163a10.384 10.384 0 0 1-7.44 3.137c-5.25 0-9.573-3.847-10.315-8.943l-.115-.628-.944 1.1a.949.949 0 0 1-1.341.1.958.958 0 0 1-.1-1.347l2.904-3.38 3.722 2.153a.956.956 0 0 1 .349 1.303.95.95 0 0 1-1.297.35l-1.096-.633.046.25h.018c.41 4.153 3.95 7.436 8.17 7.436z" fill="#313131"/>
    </g>
    <defs>
        <clippath id="a">
            <path fill="#fff" d="M0 0h26v26H0z"/>
        </clippath>
    </defs>
</symbol><symbol viewBox="0 0 16 16" id="icon_calend_16x16">
    <path d="M10.666 1.333V4M5.334 1.333V4M2 6h12M12.667 2.667H3.333C2.597 2.667 2 3.264 2 4v8.667C2 13.404 2.597 14 3.333 14h9.334c.736 0 1.333-.596 1.333-1.333V4c0-.736-.597-1.333-1.333-1.333z" stroke-linecap="round" stroke-linejoin="round"/>
</symbol></svg>