<svg width="103" height="127" viewBox="0 0 103 127" fill="none" xmlns="http://www.w3.org/2000/svg">
<path d="M20.0763 105.683C18.9047 107.726 18.0665 109.162 18.0665 109.162L21.8254 111.73C38.7215 82.7564 68.9832 36.6183 68.9832 36.6183C68.9832 36.6183 72.5346 31.7186 75.0141 31.2642C72.2065 36.1394 67.2356 44.319 61.2795 54.1196C53.3456 67.1748 43.6638 83.1064 35.0187 97.9351C36.7506 98.9453 39.1047 100.267 40.9502 101.115C59.5929 108.37 71.9475 92.6082 81.0394 80.6608C90.1314 68.7133 103.656 38.8902 85.2749 16.0225C60.4448 11.9368 33.773 28.7606 20.1882 46.8821C7.52427 63.7755 14.6835 85.1002 26.0005 90.8174C27.0027 89.487 28.002 88.2546 28.9929 87.1524C28.9929 87.1524 30.9597 87.6813 31.8122 87.6956C27.0016 94.6592 22.9789 100.969 20.0763 105.683Z" fill="#2DCA73"/>
</svg>
